<svg xmlns="http://www.w3.org/2000/svg" version="1.1" xmlns:xlink="http://www.w3.org/1999/xlink"  width="1400" height="400" preserveAspectRatio="none" viewBox="0 0 1400 400"><g mask="url(&quot;#SvgjsMask1038&quot;)" fill="none"><rect width="1400" height="400" x="0" y="0" fill="rgba(231, 188, 194, 1)"></rect><path d="M1516.6666666666667 400L0 400 L0 209.02Q85.13 177.48, 116.66666666666666 262.61Q153.27 182.55, 233.33333333333331 219.15Q260.62 176.44, 303.3333333333333 203.73Q376.69 160.42, 420 233.78Q494.68 191.79, 536.6666666666666 266.47Q560.66 220.46, 606.6666666666666 244.45Q647.66 168.78, 723.3333333333333 209.78Q768.5 184.95, 793.3333333333333 230.12Q837.32 204.11, 863.3333333333333 248.09Q880.46 195.22, 933.3333333333333 212.34Q963.26 172.26, 1003.3333333333333 202.19Q1060.63 189.49, 1073.3333333333333 246.78Q1101.59 205.04, 1143.3333333333333 233.3Q1215.57 188.87, 1260 261.11Q1268.41 199.53, 1330 207.94Q1371.44 179.38, 1400 220.83Q1464.67 168.83, 1516.6666666666667 233.5z" fill="rgba(223, 123, 144, 1)"></path><path d="M1493.3333333333335 400L0 400 L0 265.04Q69.4 217.78, 116.66666666666666 287.18Q184.31 238.15, 233.33333333333331 305.79Q271.48 227.27, 350 265.41Q421.96 220.71, 466.66666666666663 292.67Q512.62 268.62, 536.6666666666666 314.57Q574.17 235.41, 653.3333333333333 272.92Q720.47 223.39, 769.9999999999999 290.53Q816.98 267.51, 839.9999999999999 314.49Q855.94 260.44, 909.9999999999999 276.38Q960.68 210.4, 1026.6666666666665 261.08Q1099.88 217.62, 1143.3333333333333 290.83Q1196.47 227.3, 1260 280.44Q1336.36 240.14, 1376.6666666666667 316.5Q1425.51 248.68, 1493.3333333333335 297.53z" fill="rgba(241, 143, 154, 1)"></path><path d="M1493.3333333333333 400L0 400 L0 315.26Q40.23 285.49, 70 325.71Q123.17 308.88, 140 362.05Q185.17 290.55, 256.66666666666663 335.72Q274.44 283.5, 326.66666666666663 301.27Q408.89 266.83, 443.33333333333326 349.05Q483.93 272.98, 559.9999999999999 313.58Q600.51 284.1, 629.9999999999999 324.61Q675.3 299.91, 699.9999999999999 345.21Q738.42 266.97, 816.6666666666665 305.39Q880 252.06, 933.3333333333331 315.4Q983.27 295.33, 1003.3333333333331 345.27Q1052.63 277.9, 1119.9999999999998 327.2Q1194.91 285.45, 1236.6666666666665 360.36Q1263.15 316.84, 1306.6666666666665 343.32Q1320.87 287.52, 1376.6666666666665 301.73Q1450.01 258.41, 1493.3333333333333 331.76z" fill="rgba(237, 198, 203, 1)"></path><path d="M1493.3333333333335 400L0 400 L0 367.02Q70.24 320.59, 116.66666666666666 390.83Q187.41 344.9, 233.33333333333331 415.64Q247.22 359.53, 303.3333333333333 373.42Q368.15 321.57, 420 386.39Q461.8 358.19, 490 399.98Q531.16 371.14, 560 412.3Q598.35 333.98, 676.6666666666666 372.33Q729.86 308.86, 793.3333333333333 362.05Q856.44 355.16, 863.3333333333333 418.27Q878.15 363.08, 933.3333333333333 377.9Q997.78 325.68, 1050 390.12Q1066.41 336.53, 1120 352.95Q1166.98 329.93, 1190 376.91Q1266.58 336.83, 1306.6666666666667 413.41Q1331.9 368.64, 1376.6666666666667 393.88Q1414.16 314.71, 1493.3333333333335 352.2z" fill="rgba(240, 240, 240, 1)"></path></g><defs><mask id="SvgjsMask1038"><rect width="1400" height="400" fill="#ffffff"></rect></mask></defs></svg>